<?xml version="1.0" standalone="no"?>
<!DOCTYPE svg PUBLIC "-//W3C//DTD SVG 20010904//EN"
 "http://www.w3.org/TR/2001/REC-SVG-20010904/DTD/svg10.dtd">
<svg version="1.0" xmlns="http://www.w3.org/2000/svg"
 width="192.000000pt" height="192.000000pt" viewBox="0 0 192.000000 192.000000"
 preserveAspectRatio="xMidYMid meet">

<g transform="translate(0.000000,192.000000) scale(0.100000,-0.100000)"
fill="#000000" stroke="none">
<path d="M785 1836 c-192 -45 -341 -130 -472 -270 -157 -168 -234 -366 -235
-601 -1 -298 144 -568 392 -734 301 -201 692 -200 990 2 67 46 176 154 226
224 57 79 107 187 136 294 18 69 22 109 21 219 -1 162 -20 250 -88 386 -111
227 -312 395 -555 465 -97 27 -325 36 -415 15z m300 -656 c-14 -145 -26 -265
-28 -266 -1 -1 -45 -13 -97 -26 l-95 -24 -59 -192 c-33 -106 -61 -190 -63
-189 -2 2 13 78 32 168 34 155 36 171 29 286 l-6 121 111 7 c61 4 111 9 111
11 0 3 18 87 40 189 22 102 40 190 40 197 0 7 -25 -45 -55 -116 -46 -107 -55
-139 -55 -187 0 -54 -2 -59 -22 -59 -39 0 -301 -20 -304 -23 -2 -2 10 -135 27
-297 16 -162 28 -298 26 -304 -2 -6 -16 55 -31 134 -67 357 -137 718 -146 755
-5 21 -7 41 -5 43 2 2 106 -17 230 -43 125 -26 228 -45 230 -43 1 1 22 35 45
73 60 99 64 104 68 74 2 -14 -9 -144 -23 -289z m113 130 l57 -145 44 -3 44 -3
-7 -57 c-4 -31 -8 -57 -9 -58 -1 -1 -30 -6 -65 -10 l-62 -7 6 69 c5 60 1 88
-30 207 -44 166 -44 163 -39 157 2 -3 30 -70 61 -150z m25 81 c59 -71 71 -80
116 -91 55 -13 56 -15 45 -82 -7 -38 -7 -38 -55 -38 l-49 0 0 43 c0 35 -10 59
-58 132 -73 114 -74 115 -69 115 2 0 34 -35 70 -79z m86 -418 c-2 -86 -7 -94
-84 -120 -38 -12 -75 -23 -82 -23 -18 0 -19 158 0 165 12 5 117 21 150 24 14
1 17 -7 16 -46z m-211 -145 l-3 -61 -61 -21 c-60 -20 -64 -24 -160 -148 -55
-69 -101 -124 -103 -123 -2 2 31 56 73 120 76 115 76 116 76 183 l0 68 83 21
c45 11 86 21 90 22 4 1 7 -27 5 -61z"/>
<path d="M497 119 c7 -7 15 -10 18 -7 3 3 -2 9 -12 12 -14 6 -15 5 -6 -5z"/>
<path d="M557 89 c7 -7 15 -10 18 -7 3 3 -2 9 -12 12 -14 6 -15 5 -6 -5z"/>
<path d="M918 3 c23 -2 61 -2 85 0 23 2 4 4 -43 4 -47 0 -66 -2 -42 -4z"/>
</g>
</svg>
